<?xml version="1.0" standalone="no"?><!DOCTYPE svg PUBLIC "-//W3C//DTD SVG 1.1//EN" "http://www.w3.org/Graphics/SVG/1.1/DTD/svg11.dtd"><svg t="1748505262105" class="icon" viewBox="0 0 1157 1024" version="1.1" xmlns="http://www.w3.org/2000/svg" p-id="12255" xmlns:xlink="http://www.w3.org/1999/xlink" width="54.234375" height="48"><path d="M1097.335136 190.155223l-157.391316-69.97641-496.774681 233.551274v149.962161l-86.658644-38.524839V315.205248l496.774681-233.551274L686.462837 7.451398c-22.376436-9.920368-58.899407-9.920368-81.275843 0L194.314696 190.155223c-32.697178 14.546908-59.433238 55.78539-59.344267 91.641071l0.622804 270.652562a266.026023 266.026023 0 0 1 81.676217-12.856441 267.494059 267.494059 0 0 1 267.182657 267.227143c0 38.480353-8.36336 75.003323-23.088212 108.100876l145.113192 61.968938c21.575689 9.253079 56.942025 9.253079 78.5622 0l409.938093-175.185699c33.275496-14.235506 60.589873-55.473988 60.678845-91.641071L1156.679402 281.707322c0.088972-35.811195-26.647088-77.049677-59.344266-91.596585zM938.698213 500.978604l55.651932-117.442926c5.649717-11.877751 19.707279-18.684102 25.356996-12.278124l57.119969 65.127441c5.738688 6.49495-1.512523 21.308773-12.9899 26.602602l-24.022417 11.165975-0.489345 169.22458c0 7.384669-6.539436 16.192888-14.546908 19.618307l-36.033625 15.570085c-7.874014 3.380933-14.235506 0.22243-14.235506-7.073267l-0.133458-166.955796-23.310642 10.810087c-10.943545 5.071399-17.794383-2.891587-12.367096-14.368964z m-205.302691 95.956209l50.625019-111.659752c5.071399-11.254947 18.15027-17.571953 23.444099-11.343919l53.961466 63.170059c5.338315 6.317006-1.201121 20.374568-11.788778 25.31251l-22.242979 10.320742 1.379065 162.017855c0.088972 7.073267-5.916632 15.436627-13.345787 18.639616l-33.364468 14.41345c-7.340183 3.114017-13.345787 0-13.390273-6.984295l-1.957382-159.971501-21.620175 10.053826c-10.142798 4.671025-16.637748-3.025045-11.699807-13.968591z m370.212134 91.374156c0 3.692334-3.380933 8.096444-7.473641 9.78691l-381.289137 160.238417c-3.558877 1.468037-6.49495-0.088972-6.539436-3.558876l-0.311401-18.59513c0-3.425419 2.802615-7.429155 6.361491-8.986164l382.000913-162.685144c4.092708-1.779438 7.384669-0.133458 7.384669 3.558876l-0.133458 20.241111zM217.224964 589.59463a217.180442 217.180442 0 1 0 0 434.40537 217.180442 217.180442 0 0 0 0-434.40537z m141.910202 172.605513l-133.635814 150.362535a33.364468 33.364468 0 0 1-45.820536 3.870278L96.134189 849.615049a33.364468 33.364468 0 1 1 41.727827-52.182028L196.672451 844.365706l112.593957-126.65152a33.364468 33.364468 0 1 1 49.95773 44.396985z" fill="#1790FF" p-id="12256"></path></svg>