<?xml version="1.0" standalone="no"?><!DOCTYPE svg PUBLIC "-//W3C//DTD SVG 1.1//EN" "http://www.w3.org/Graphics/SVG/1.1/DTD/svg11.dtd"><svg t="1748504957454" class="icon" viewBox="0 0 1024 1024" version="1.1" xmlns="http://www.w3.org/2000/svg" p-id="4491" xmlns:xlink="http://www.w3.org/1999/xlink" width="48" height="48"><path d="M964.944 669.328l-50.112-12.64a225.504 225.504 0 0 0-16.64-40.064l26.672-44.304a16.08 16.08 0 0 0-2.4-19.632l-49.92-50.112a16.048 16.048 0 0 0-19.632-2.4l-44.48 26.848c-5.824-2.992-11.632-6-17.648-8.608-7.216-3.008-14.832-5.808-22.448-8.016l-12.64-50.112a16.016 16.016 0 0 0-15.424-12.224h-70.544a15.68 15.68 0 0 0-15.424 12.224l-12.64 50.112c-13.824 4.208-27.248 9.824-40.08 16.64l-44.288-26.672a16.08 16.08 0 0 0-19.648 2.4l-50.096 49.92a16.048 16.048 0 0 0-2.4 19.632l26.64 44.304a219.488 219.488 0 0 0-16.64 40.08l-50.08 12.624c-7.232 1.808-12.24 8.224-12.24 15.424v70.56a15.68 15.68 0 0 0 12.224 15.424l50.112 12.64c4.208 13.824 9.824 27.248 16.64 40.08l-26.656 44.288c-3.808 6.208-2.816 14.432 2.4 19.632l49.904 49.92c5.2 5.2 13.232 6.208 19.632 2.4l44.304-26.656c12.816 6.816 26.048 12.416 40.08 16.64l12.624 50.08c1.808 7.232 8.224 12.24 15.44 12.24h70.544a15.68 15.68 0 0 0 15.424-12.224l12.64-50.112a225.504 225.504 0 0 0 40.08-16.64l44.288 26.672c6.208 3.808 14.432 2.8 19.632-2.4l49.92-49.92c5.2-5.2 6.208-13.216 2.4-19.632l-26.656-44.288c6.816-12.832 12.416-26.064 16.64-40.096l50.08-12.624c7.232-1.808 12.24-8.208 12.24-15.424v-70.56a15.664 15.664 0 0 0-11.824-15.424z m-20.048 73.552l-47.088 11.84a15.616 15.616 0 0 0-11.632 11.616 183.2 183.2 0 0 1-20.432 49.296 16.096 16.096 0 0 0 0 16.432l25.04 41.696-32.256 32.256-41.696-25.04a16.096 16.096 0 0 0-16.432 0 185.92 185.92 0 0 1-49.296 20.432 15.92 15.92 0 0 0-11.632 11.632l-11.824 47.088h-45.696l-11.824-47.088a15.616 15.616 0 0 0-11.616-11.632 183.2 183.2 0 0 1-49.312-20.432 16.096 16.096 0 0 0-16.432 0l-41.68 25.04-32.08-32.256 25.056-41.696a16.096 16.096 0 0 0 0-16.432 185.92 185.92 0 0 1-20.432-49.296 16.256 16.256 0 0 0-11.632-11.632l-47.104-11.824v-45.696L512 685.36a15.616 15.616 0 0 0 11.632-11.616 183.2 183.2 0 0 1 20.432-49.312 16.096 16.096 0 0 0 0-16.432l-25.056-41.68 32.272-32.272 41.696 25.056c5.008 3.008 11.424 3.008 16.432 0a185.92 185.92 0 0 1 49.296-20.448c5.6-1.408 10.224-6.016 11.632-11.632l11.824-47.088h45.696l11.824 47.088a15.616 15.616 0 0 0 11.616 11.632 183.2 183.2 0 0 1 49.312 20.448c5.008 3.008 11.424 3.008 16.432 0l41.68-25.056 32.272 32.272L865.92 608a16.096 16.096 0 0 0 0 16.432A185.92 185.92 0 0 1 886.4 673.76c1.392 5.6 6.016 10.208 11.616 11.616l47.104 11.84v45.68h-0.208z" fill="#1296db" p-id="4492"></path><path d="M705.008 592.16a128.048 128.048 0 0 0-128.08 128.08 128.048 128.048 0 0 0 128.08 128.064 128.048 128.048 0 0 0 128.064-128.064c-0.208-70.752-57.52-128.08-128.064-128.08z m0 223.872a96 96 0 1 1 0.016-192.016 96 96 0 0 1-0.016 192.016z" fill="#1296db" p-id="4493"></path><path d="M784.96 224h32.08v256.128H784.96z" fill="#1296db" p-id="4494"></path><path d="M112.96 848.096v63.936c0 8.816 7.216 16.032 16.048 16.032h336.096V896H144.832v-48.096h192c2.4 0 5.008-0.608 7.216-1.6l63.936-32.08A15.808 15.808 0 0 0 416.8 800a15.808 15.808 0 0 0-8.816-14.24l-63.936-32.064a14.816 14.816 0 0 0-7.2-1.792h-192V207.968h608.048a63.984 63.984 0 0 0 63.936-63.936V111.968c0-8.816-7.2-16.032-16.032-16.032h-48.096V128h32.064v16.032a32.16 32.16 0 0 1-32.064 32.064 32.16 32.16 0 0 1-32.064-32.064V95.936a32.16 32.16 0 0 1 32.064-32.064h63.936a32.16 32.16 0 0 1 32.064 32.064v367.968h32.064V95.936A63.984 63.984 0 0 0 816.832 32H112.976a64.016 64.016 0 0 0-64.144 63.936v48.096a63.984 63.984 0 0 0 63.936 63.936v544.128H96.736a48.112 48.112 0 0 0 0 96.208H112.96v-0.208zM80.912 144.032V95.936a32.16 32.16 0 0 1 32.08-32.064h585.008a61.76 61.76 0 0 0-8.8 32.064v48.096c0 11.232 3.2 22.24 8.8 32.064H112.976a32.032 32.032 0 0 1-32.08-32.064z m284.192 656.16l-32.064 16.048h-12.224V784.16h12.224l32.064 16.048z m-284.192 0c0-8.8 7.216-16.032 16.032-16.032h192v32.08h-192a16.208 16.208 0 0 1-16.032-16.032z" fill="#1296db" p-id="4495"></path><path d="M48.832 272.096h32.064V592.16H48.832z" fill="#1296db" p-id="4496"></path><path d="M672.928 288.128v-32.064H464.896c-4.208 0-8.208 1.6-11.216 4.608l-29.264 29.28a175.312 175.312 0 0 0-227.872 17.616 16.096 16.096 0 0 0 0 22.656l113.232 113.232c3.008 3.008 7.024 4.8 11.232 4.8h159.92c8.832 0 16.048-7.2 16.048-16.016 0-45.104-17.44-88.384-48.512-120.864l23.04-23.04h201.44v-0.208zM464.096 416h-136.48l-96.608-96.608a143.2 143.2 0 0 1 170.368-6.608l-43.696 43.888 22.64 22.656 45.696-45.696A144.736 144.736 0 0 1 464.096 416z" fill="#1296db" p-id="4497"></path><path d="M705.008 256.064h32.064v32.064h-32.064zM224.8 495.968h32.064v32.064H224.8zM288.928 495.968h159.936v32.064h-159.936zM192.928 560.096h256.144v32.064H192.928zM544.864 320h32.064v32.064h-32.064zM609.008 320h128.064v32.064h-128.064zM544.864 384.128h192v32.08h-192zM192.928 624.032h208.048v32.064H192.928z" fill="#1296db" p-id="4498"></path></svg>