<?xml version="1.0" standalone="no"?><!DOCTYPE svg PUBLIC "-//W3C//DTD SVG 1.1//EN" "http://www.w3.org/Graphics/SVG/1.1/DTD/svg11.dtd"><svg t="1748504656831" class="icon" viewBox="0 0 1024 1024" version="1.1" xmlns="http://www.w3.org/2000/svg" p-id="2192" width="48" height="48" xmlns:xlink="http://www.w3.org/1999/xlink"><path d="M135.88 502.952a12 12 0 0 1 4.048 7.76L140 512c0 203.392 163.232 368.664 365.848 371.952 3.408 0.024 6.152 2.8 6.152 6.2v9.76a8 8 0 0 1-8 8h-0.488C299.6 903.624 133.6 745.2 117.312 544.472l-0.12-1.776-47.52 54.56a8 8 0 0 1-6.024 2.744H51.36a7.248 7.248 0 0 1-5.464-12l73.048-83.88a12 12 0 0 1 16.928-1.168zM768 644c64.064 0 116 51.936 116 116s-51.936 116-116 116-116-51.936-116-116S703.936 644 768 644z m0 24c-50.808 0-92 41.192-92 92s41.192 92 92 92 92-41.192 92-92-41.192-92-92-92zM512 298.976l149.312 62.88a24 24 0 0 1 14.688 22.112V576c0 22.624-14.544 48.648-43.592 78.68l-4.464 4.528-4.68 4.6-4.904 4.648-5.12 4.72-5.328 4.776-5.56 4.84-5.76 4.904-6 4.968c-1.008 0.832-2.032 1.672-3.072 2.512l-6.312 5.056-6.528 5.128-6.752 5.192-3.456 2.624-7.072 5.28-7.288 5.36-7.512 5.424-3.84 2.736-7.824 5.52-8.056 5.584-10.88 7.464-6.776-4.64-8.16-5.624-7.944-5.552-7.72-5.488-7.512-5.424-3.672-2.688-7.184-5.32-6.96-5.256-6.752-5.192-6.528-5.12-6.32-5.064-3.072-2.512-5.984-4.96-5.768-4.912-5.56-4.84-5.336-4.776-5.12-4.72-4.896-4.648-4.68-4.6-4.464-4.528C362.544 624.64 348 598.624 348 576V383.968a24 24 0 0 1 14.688-22.12L512 298.976z m0 26.04l-140 58.944V576c0 12.768 7.928 28.728 23.8 47.632l3.4 3.952 3.624 4.032c1.248 1.36 2.528 2.736 3.856 4.12l4.08 4.2 4.304 4.28 2.24 2.176 4.64 4.4c1.584 1.48 3.208 2.976 4.88 4.48l5.096 4.568 5.328 4.64 5.552 4.72c1.888 1.592 3.816 3.192 5.776 4.8l6.008 4.88 6.24 4.96 6.464 5.024 6.688 5.104 3.432 2.584 7.032 5.216 7.256 5.296 7.488 5.368 7.712 5.44 5.096 3.552 5.12-3.552 11.48-8.136 7.376-5.328 7.144-5.264c2.344-1.736 4.648-3.464 6.92-5.176l6.688-5.112 6.464-5.032 6.24-4.96 6-4.872c1.976-1.608 3.896-3.208 5.792-4.8l5.552-4.72 2.696-2.328 5.208-4.608c1.704-1.52 3.36-3.032 4.992-4.52l4.76-4.448c1.544-1.464 3.056-2.92 4.528-4.36l4.304-4.288 4.08-4.2c1.32-1.384 2.608-2.76 3.856-4.112l3.624-4.04c1.168-1.328 2.296-2.648 3.392-3.952l3.176-3.872c13.248-16.584 20.104-30.792 20.592-42.432L652 576V383.968L512 325.016z m8.144-208.936l1.12 0.024c203.552 4.68 369.152 162.936 385.424 363.416l0.12 1.784 47.52-54.56a8 8 0 0 1 6.024-2.744h12.28a7.248 7.248 0 0 1 5.464 12l-73.048 83.88a12 12 0 0 1-20.976-6.592L884 512c0-203.392-163.232-368.664-365.848-371.952a6.2 6.2 0 0 1-6.152-6.2v-9.76a8 8 0 0 1 8-8h0.144zM248 124c64.064 0 116 51.936 116 116S312.064 356 248 356 132 304.064 132 240 183.936 124 248 124z m0 24c-50.808 0-92 41.192-92 92S197.192 332 248 332 340 290.808 340 240 298.808 148 248 148z" fill="#1A2035" p-id="2193"></path><path d="M813.144 724.2l5.656 5.656a8 8 0 0 1 0 11.32l-54.344 54.344a12 12 0 0 1-15.536 1.216L748 796l-30.024-26.688a8 8 0 0 1-0.664-11.288l5.32-5.984a8 8 0 0 1 10.504-1.28l0.784 0.616 21.568 19.168 46.344-46.344a8 8 0 0 1 11.312 0zM396 512L512 512v180.096l-2.28-1.616c-37.472-26.84-66.056-50.688-85.624-71.28-10.736-11.296-18.448-21.312-23.168-29.76l-0.84-1.544c-2.928-5.536-4.088-9.528-4.088-11.896v-64.008zM512 351.056l116 48.848v112.088L512 512V351.056zM293.144 204.2l5.656 5.656a8 8 0 0 1 0 11.32l-54.344 54.344a12 12 0 0 1-15.536 1.216L228 276l-30.024-26.688a8 8 0 0 1-0.664-11.288l5.32-5.984a8 8 0 0 1 10.504-1.28l0.784 0.616 21.568 19.168 46.344-46.344a8 8 0 0 1 11.312 0z" fill="#2554FE" p-id="2194"></path></svg>