<?xml version="1.0" standalone="no"?><!DOCTYPE svg PUBLIC "-//W3C//DTD SVG 1.1//EN" "http://www.w3.org/Graphics/SVG/1.1/DTD/svg11.dtd"><svg t="1748527529198" class="icon" viewBox="0 0 1024 1024" version="1.1" xmlns="http://www.w3.org/2000/svg" p-id="2087" xmlns:xlink="http://www.w3.org/1999/xlink" width="48" height="48"><path d="M209.004 401.085l29.75-44.949 107.843 71.465-29.75 44.894zM682.469 546.6l-14.552-51.846 124.497-35.032 14.552 51.847z m-367.4 266.24L274.7 777.162l85.693-96.903 40.421 35.733z m282.893-422.588l-46.673-26.948 43.116-74.644 46.673 26.948z m17.678 338.513l41.121-34.816 83.537 98.735-41.122 34.816z" fill="#13227a" p-id="2088"></path><path d="M501.221 765.305c-118.568 0-215.579-97.01-215.579-215.579s97.01-215.579 215.58-215.579S716.8 431.157 716.8 549.727s-97.01 215.578-215.579 215.578z m0-377.263c-91.621 0-161.684 70.063-161.684 161.684S409.6 711.411 501.22 711.411s161.684-70.064 161.684-161.685-75.452-161.684-161.684-161.684z m-334.147 64.674c-59.285 0-107.79-48.505-107.79-107.79s48.505-107.79 107.79-107.79 107.79 48.506 107.79 107.79-48.506 107.79-107.79 107.79z m0-161.684c-32.337 0-53.895 21.557-53.895 53.894s21.558 53.895 53.895 53.895 53.894-21.558 53.894-53.895-26.947-53.894-53.894-53.894z m86.231 657.515c-59.284 0-107.79-48.505-107.79-107.79s48.506-107.789 107.79-107.789 107.79 48.506 107.79 107.79-48.506 107.79-107.79 107.79z m0-161.684c-32.337 0-53.894 21.558-53.894 53.895s21.557 53.895 53.894 53.895 53.895-21.558 53.895-53.895-21.558-53.895-53.895-53.895z m603.621-210.19c-59.284 0-107.79-48.505-107.79-107.789s48.506-107.79 107.79-107.79 107.79 48.506 107.79 107.79-48.505 107.79-107.79 107.79z m0-161.684c-32.337 0-53.894 21.558-53.894 53.895s21.557 53.895 53.894 53.895 53.895-21.558 53.895-53.895-21.558-53.895-53.895-53.895z m-194.02-64.673c-70.064 0-134.738-59.284-134.738-134.737S587.453 80.842 662.905 80.842s134.737 59.284 134.737 134.737-59.284 134.737-134.737 134.737z m0-215.58c-43.117 0-80.843 37.727-80.843 80.843s37.726 80.842 80.842 80.842 80.842-37.726 80.842-80.842-32.336-80.842-80.842-80.842z m86.23 786.864c-43.115 0-80.841-37.726-80.841-80.842s37.726-80.842 80.842-80.842 80.842 37.726 80.842 80.842-37.726 80.842-80.842 80.842z m0-107.79c-16.168 0-26.947 10.78-26.947 26.948s10.78 26.947 26.948 26.947 26.947-10.779 26.947-26.947-10.779-26.947-26.947-26.947z" fill="#13227a" p-id="2089"></path></svg>