<?xml version="1.0" standalone="no"?><!DOCTYPE svg PUBLIC "-//W3C//DTD SVG 1.1//EN" "http://www.w3.org/Graphics/SVG/1.1/DTD/svg11.dtd"><svg t="1748505164562" class="icon" viewBox="0 0 1024 1024" version="1.1" xmlns="http://www.w3.org/2000/svg" p-id="10061" xmlns:xlink="http://www.w3.org/1999/xlink" width="48" height="48"><path d="M417.826 679.663h122.812v87.723H417.826z" fill="#2446F3" p-id="10062"></path><path d="M191.607 188.45h557.449a72.055 72.055 0 0 1 72.055 72.056v419.157H119.552V260.506a72.055 72.055 0 0 1 72.055-72.056z" fill="#3175F3" p-id="10063"></path><path d="M119.552 626.978h701.577v52.685H119.552z" fill="#89D3F7" p-id="10064"></path><path d="M286.293 767.232h381.543a26.334 26.334 0 1 1 0 52.685H286.293a26.334 26.334 0 0 1 0-52.685z" fill="#2446F3" p-id="10065"></path><path d="M659.917 385.894h216.166c19.9 0 36.028 16.128 36.028 36.028v360.295a36.028 36.028 0 0 1-36.01 36.027H659.9a36.028 36.028 0 0 1-36.028-36.01V421.905c0-19.9 16.128-36.01 36.01-36.01z" fill="#67C7F8" p-id="10066"></path><path d="M677.922 439.945h180.156c9.95 0 18.005 8.055 18.005 18.005v270.233c0 9.95-8.055 18.006-18.005 18.006H677.922a18.022 18.022 0 0 1-18.005-18.006V457.95c0-9.95 8.055-18.005 18.005-18.005z" fill="#2446F3" p-id="10067"></path><path d="M713.95 403.917h108.1v18.005h-108.1z m36.028 378.3a18.022 18.022 0 1 0 36.044 0 18.022 18.022 0 0 0-36.044 0z" fill="#FFFFFF" p-id="10068"></path><path d="M224.905 188.45h52.667v157.867h-52.667z" fill="#2446F3" p-id="10069"></path></svg>