<?xml version="1.0" standalone="no"?><!DOCTYPE svg PUBLIC "-//W3C//DTD SVG 1.1//EN" "http://www.w3.org/Graphics/SVG/1.1/DTD/svg11.dtd"><svg t="1748504834552" class="icon" viewBox="0 0 1024 1024" version="1.1" xmlns="http://www.w3.org/2000/svg" p-id="3436" xmlns:xlink="http://www.w3.org/1999/xlink" width="48" height="48"><path d="M932.096 942.08a20.864 20.864 0 0 1 19.136 12.608c1.024 2.56 1.536 5.184 1.536 7.872v40.96a20.352 20.352 0 0 1-6.08 14.464 20.8 20.8 0 0 1-14.592 6.016H103.552a20.864 20.864 0 0 1-14.656-6.016 20.352 20.352 0 0 1-6.016-14.464v-40.96a20.288 20.288 0 0 1 12.8-18.944 20.864 20.864 0 0 1 7.872-1.536h828.544zM941.12 0c20.928 0 41.024 7.808 56.32 21.888 15.36 14.08 24.768 33.28 26.304 53.888L1024 81.92v651.264c0 20.672-7.872 40.576-22.144 55.744a83.2 83.2 0 0 1-54.528 25.984l-6.208 0.192h-245.952v52.288H320.896v-52.288h-238.08c-20.864 0-40.96-7.808-56.32-21.824-15.36-14.08-24.704-33.344-26.24-53.952L0 733.184V81.92C0 61.248 7.872 41.344 22.08 26.24a83.2 83.2 0 0 1 54.528-26.048L82.88 0h858.24zM524.672 546.368H195.136a34.56 34.56 0 0 0-24.32 9.984 33.856 33.856 0 0 0 0 48.064c6.464 6.4 15.232 9.984 24.32 9.984h329.536a34.56 34.56 0 0 0 24.32-9.984 33.856 33.856 0 0 0 0-48.064 34.56 34.56 0 0 0-24.32-9.984z m168.256-307.52c-78.4 0.96-141.184 63.36-140.224 139.456 0.96 76.096 65.28 136.96 143.744 136.064 78.4-0.96 141.12-63.36 140.16-139.52h-143.744l0.064-136zM420.224 376.256H193.728a34.56 34.56 0 0 0-24.32 9.984 33.856 33.856 0 0 0 0 48.064c6.464 6.4 15.232 9.984 24.32 9.984h226.496a34.56 34.56 0 0 0 24.32-9.984 33.856 33.856 0 0 0 0-48.064 34.56 34.56 0 0 0-24.32-9.984zM728 204.8v138.112h141.952c0-76.16-63.488-137.92-141.952-138.112z m-376.512 1.024H195.2a34.56 34.56 0 0 0-24.32 9.984 33.856 33.856 0 0 0 0 48.064c6.464 6.4 15.232 9.984 24.32 9.984h156.352a34.56 34.56 0 0 0 24.32-9.984 33.856 33.856 0 0 0 0-48.064 34.56 34.56 0 0 0-24.32-9.984z" fill="#3D7EFF" p-id="3437"></path></svg>