<?xml version="1.0" standalone="no"?><!DOCTYPE svg PUBLIC "-//W3C//DTD SVG 1.1//EN" "http://www.w3.org/Graphics/SVG/1.1/DTD/svg11.dtd"><svg t="1748505203840" class="icon" viewBox="0 0 1024 1024" version="1.1" xmlns="http://www.w3.org/2000/svg" p-id="11142" xmlns:xlink="http://www.w3.org/1999/xlink" width="48" height="48"><path d="M854.689684 678.575158a15.319579 15.319579 0 0 0-21.530947 3.570526l-67.287579 94.922105-67.220211-94.922105a15.252211 15.252211 0 0 0-21.530947-3.557052 15.494737 15.494737 0 0 0-3.530105 21.571368l58.475789 82.499368h-37.995789c-8.528842 0-15.36 7.033263-15.36 15.602527 0 8.569263 6.858105 15.535158 15.36 15.535158h56.400842v17.178947h-56.400842c-8.528842 0-15.36 6.965895-15.36 15.535158s6.831158 15.535158 15.333052 15.535158h56.387369v38.373052c0 8.569263 6.898526 15.535158 15.413895 15.535158 8.515368 0 15.413895-6.965895 15.413894-15.535158V862.046316h56.454737c8.488421 0 15.386947-6.938947 15.386947-15.494737 0-8.569263-6.885053-15.508211-15.386947-15.508211h-56.454737v-17.178947h56.454737c8.528842 0 15.454316-6.979368 15.454316-15.575579 0-8.596211-6.925474-15.562105-15.454316-15.562105h-37.995789l58.475789-82.512842a15.440842 15.440842 0 0 0-3.503158-21.638737z" fill="#18D8F7" p-id="11143"></path><path d="M527.400421 851.132632c-13.473684-13.150316-28.645053-22.002526-46.618947-22.312421h-1.024c-38.723368 0-65.926737 39.248842-92.16 77.217684-9.525895 13.864421-19.402105 28.065684-28.564211 38.413473-8.448 9.620211-12.032 13.419789-15.063579 13.231158-1.953684-0.067368-6.103579-4.055579-13.473684-13.285052-8.111158-10.159158-16.289684-23.309474-24.993684-37.241263-23.888842-38.224842-48.599579-77.864421-87.134316-78.336h-0.458105c-12.988632 0-26.085053 6.602105-46.713263 23.44421-12.058947 9.862737-27.095579 23.498105-44.597895 40.771368-9.323789 9.162105-18.647579 18.661053-27.526737 27.688422V63.232c0-2.452211 2.048-4.500211 4.581053-4.500211h753.192421c2.56 0 4.634947 2.021053 4.634947 4.500211v514.829474a239.925895 239.925895 0 0 1 58.610526 38.669473V63.232A63.272421 63.272421 0 0 0 856.872421 0H103.612632A63.285895 63.285895 0 0 0 40.421053 63.232V987.216842a32.350316 32.350316 0 0 0 56.185263 21.854316 2278.602105 2278.602105 0 0 1 65.118316-68.257684c34.061474-33.953684 52.897684-51.765895 57.788631-51.631158 4.082526 0.121263 6.063158 5.227789 11.331369 11.843368 8.111158 10.159158 16.249263 23.309474 24.926315 37.295158 23.834947 38.036211 48.451368 77.473684 86.770527 78.349474 0.404211 0 0.794947 0.053895 1.239579 0 38.696421 0 65.872842-39.248842 92.106105-77.231158 9.552842-13.797053 19.456-28.133053 28.577684-38.480842 8.623158-9.741474 13.325474-13.541053 15.171369-13.285053 3.098947 0.444632 6.130526 3.799579 13.850947 13.096421 8.272842 10.091789 16.707368 23.215158 25.640421 37.052632 23.821474 36.850526 48.437895 74.981053 85.544421 77.285052l3.314526 0.053895c12.651789 0 24.387368-3.988211 35.476211-10.536421a239.925895 239.925895 0 0 1-116.062316-153.49221z m353.414737 169.10821a39.221895 39.221895 0 0 0 39.248842-39.181474v-6.80421a236.274526 236.274526 0 0 1-60.537263 39.531789c6.305684 4.217263 13.716211 6.467368 21.288421 6.467369z" fill="#18D8F7" p-id="11144"></path><path d="M257.455158 156.469895c0-16.303158-13.096421-29.507368-29.184-29.507369-16.074105 0-29.143579 13.204211-29.143579 29.507369v532.749473H547.301053a242.432 242.432 0 0 1 41.768421-58.799157H257.455158V156.469895z" fill="#18D8F7" p-id="11145"></path><path d="M722.593684 213.113263c-10.509474 0-20.224 5.632-25.451789 14.767158h-0.134737l-116.129684 207.683368-143.252211-29.237894h-0.026947L284.429474 516.446316a29.130105 29.130105 0 0 0-12.773053 24.171789 29.291789 29.291789 0 1 0 46.618947 23.686737l132.688843-95.407158 160.013473 32.687158 0.134737 0.040421v-0.040421l136.030316-243.159579a29.305263 29.305263 0 0 0-24.562526-45.325474z m38.197895 361.135158c-123.055158 0-222.800842 99.84-222.800842 222.989474 0 123.162947 99.745684 223.002947 222.800842 223.002947 123.041684 0 222.787368-99.84 222.787368-222.989474s-99.745684-222.989474-222.787368-222.989473z m0 409.020632c-102.669474 0-185.856-83.267368-185.856-186.017685 0-102.763789 83.186526-186.017684 185.856-186.017684 102.629053 0 185.842526 83.267368 185.842526 186.017684 0 102.723368-83.213474 186.017684-185.842526 186.017685z" fill="#18D8F7" p-id="11146"></path></svg>