<?xml version="1.0" standalone="no"?><!DOCTYPE svg PUBLIC "-//W3C//DTD SVG 1.1//EN" "http://www.w3.org/Graphics/SVG/1.1/DTD/svg11.dtd"><svg t="1748505126146" class="icon" viewBox="0 0 1024 1024" version="1.1" xmlns="http://www.w3.org/2000/svg" p-id="8940" xmlns:xlink="http://www.w3.org/1999/xlink" width="48" height="48"><path d="M137.78 916.48A126.515 126.515 0 0 1 11.417 790.118v-573.44A126.515 126.515 0 0 1 137.779 90.42h560.333A126.515 126.515 0 0 1 824.32 216.781v176.281h-44.237V216.781a82.227 82.227 0 0 0-81.92-81.92H137.78a82.227 82.227 0 0 0-81.92 81.92v573.44a82.227 82.227 0 0 0 81.92 81.92h413.03v44.339z" fill="#0B7EE7" p-id="8941"></path><path d="M283.494 370.33a74.598 74.598 0 0 1-67.123-42.65l-2.816-5.99H150.99a22.118 22.118 0 1 1 0-44.186h60.365l2.508-6.86a74.086 74.086 0 0 1 139.162 0l2.509 6.86h329.523a22.118 22.118 0 1 1 0 44.186H353.28l-2.714 5.99a74.598 74.598 0 0 1-67.072 42.65z m0-117.3a43.06 43.06 0 1 0 43.06 43.06 43.11 43.11 0 0 0-43.06-43.06z" fill="#0B7EE7" p-id="8942"></path><path d="M250.88 296.09a32.563 32.563 0 1 0 32.563-32.564 32.563 32.563 0 0 0-32.563 32.564z" fill="#0B7EE7" p-id="8943"></path><path d="M261.376 296.09a22.118 22.118 0 1 0 44.237 0 22.118 22.118 0 1 0-44.237 0z m24.474 502.323a74.854 74.854 0 0 1-70.81-52.429l-2.253-7.373h-61.44a19.046 19.046 0 1 1 0-38.093h63.693l2.765-6.246a74.138 74.138 0 0 1 135.782 0l2.765 6.246h107.213a19.046 19.046 0 1 1 0 38.093h-104.5l-2.252 7.373a74.854 74.854 0 0 1-70.963 52.429z m0-117.3a43.06 43.06 0 1 0 43.059 43.06 43.11 43.11 0 0 0-43.06-43.213z m105.37-96.767a74.445 74.445 0 0 1-67.636-43.828l-2.765-6.144H150.99a20.48 20.48 0 1 1 0-41.318h167.68l2.457-7.066a74.086 74.086 0 0 1 140.237 0l2.458 7.066h34.56a20.48 20.48 0 0 1 0 41.318H461.62l-2.765 6.144a74.445 74.445 0 0 1-67.635 43.828z m0-117.3a43.06 43.06 0 1 0 43.058 43.06 43.11 43.11 0 0 0-43.059-43.06z" fill="#0B7EE7" p-id="8944"></path><path d="M358.4 510.157a32.563 32.563 0 1 0 32.563-32.563 32.563 32.563 0 0 0-32.563 32.563z" fill="#0B7EE7" p-id="8945"></path><path d="M369.1 510.106a22.118 22.118 0 1 0 44.238 0 22.118 22.118 0 1 0-44.237 0z m421.633 243.968a83.507 83.507 0 1 1 83.507-83.354 83.61 83.61 0 0 1-83.507 83.354z m0-122.88a39.322 39.322 0 1 0 39.321 39.321 39.373 39.373 0 0 0-39.321-39.27z" fill="#0B7EE7" p-id="8946"></path><path d="M861.082 878.746a20.07 20.07 0 0 1-14.695-6.093s-29.491-31.642-56.883-31.642-56.32 30.72-56.678 31.283a19.866 19.866 0 0 1-21.556 4.352l-56.32-31.18a16.845 16.845 0 0 1-5.888-20.48v-0.512a76.34 76.34 0 0 0 5.94-26.676 71.117 71.117 0 0 0-71.322-70.758h-2.867c-3.789 0-7.68-5.12-9.216-13.056a278.886 278.886 0 0 1-4.71-43.418 279.04 279.04 0 0 1 4.659-43.264c1.536-7.987 5.427-13.21 9.779-13.21h2.355a71.117 71.117 0 0 0 71.373-70.655 75.827 75.827 0 0 0-6.554-28.007l0.41 0.82a16.64 16.64 0 0 1 5.734-20.173l59.802-32.461a20.122 20.122 0 0 1 7.27-1.331 20.48 20.48 0 0 1 14.439 5.939s28.979 29.798 55.603 29.798 55.091-29.081 55.398-29.388a20.48 20.48 0 0 1 21.658-4.199l57.907 31.795a16.589 16.589 0 0 1 5.632 20.122l0.46-0.82a73.267 73.267 0 0 0-6.604 28.007 71.117 71.117 0 0 0 71.526 70.861h2.048c4.557 0 8.55 5.12 10.24 13.005a274.022 274.022 0 0 1 4.762 43.417 279.45 279.45 0 0 1-4.71 43.264c-1.485 7.834-5.479 13.159-9.677 13.159h-2.407a71.117 71.117 0 0 0-71.372 70.707 75.878 75.878 0 0 0 6.553 28.006l-0.41-0.819a16.589 16.589 0 0 1-5.683 20.173L868.66 877.21a17.664 17.664 0 0 1-7.014 1.484z m-71.68-81.92c28.416 0 53.606 15.36 69.734 27.801l5.427 4.25 19.456-10.599-0.973-7.168a95.846 95.846 0 0 1-0.921-13.21 114.688 114.688 0 0 1 80.435-109.567l6.758-2.15 0.512-7.066c0-2.97 0.359-5.837 0.359-8.397s0-5.427-0.359-8.448l-0.512-7.066-6.758-2.15a114.637 114.637 0 0 1-80.538-109.466 96.768 96.768 0 0 1 0.973-13.26l0.973-7.168-19.354-10.65-5.376 4.045c-15.718 11.725-40.14 25.6-67.43 25.6s-52.275-14.285-68.147-26.317l-5.376-4.096-20.992 11.418 0.973 7.168a97.28 97.28 0 0 1 0.921 13.107 114.637 114.637 0 0 1-80.537 109.465l-6.759 2.15-0.512 7.066c0 3.021-0.358 5.888-0.358 8.448s0 5.376 0.358 8.397l0.512 7.066 6.759 2.15a114.637 114.637 0 0 1 80.537 109.517 98.202 98.202 0 0 1-0.973 13.414l-0.972 7.117 17.766 9.78 5.427-4.199c16.23-12.237 41.319-27.034 69.069-27.034z" fill="#0B7EE7" p-id="8947"></path></svg>