<?xml version="1.0" standalone="no"?><!DOCTYPE svg PUBLIC "-//W3C//DTD SVG 1.1//EN" "http://www.w3.org/Graphics/SVG/1.1/DTD/svg11.dtd"><svg t="1748505036575" class="icon" viewBox="0 0 1024 1024" version="1.1" xmlns="http://www.w3.org/2000/svg" p-id="6715" data-spm-anchor-id="a313x.search_index.0.i11.21e83a81TD005L" xmlns:xlink="http://www.w3.org/1999/xlink" width="48" height="48"><path d="M896.0512 611.34848l-751.83616 7.31648-1.71008-119.46496 116.992 51.82464 161.65888-211.9424 266.86464 166.09792 109.84448-26.30656 98.9952 78.33088z" fill="#1296db" p-id="6716" data-spm-anchor-id="a313x.search_index.0.i8.21e83a81TD005L" class=""></path><path d="M102.87616 105.71776V623.0528c0 19.02592 16.83968 34.44736 37.59616 34.44736l765.75744-0.38912c20.4288-0.2048 36.95104-15.31392 37.17632-34.03264V105.87648l-840.52992-0.15872z m787.23584 498.09408l-733.9264 0.3584V105.65632l733.9264 0.13312v498.0224z" p-id="6717" data-spm-anchor-id="a313x.search_index.0.i10.21e83a81TD005L" class="selected" fill="#13227a"></path><path d="M975.7184 84.18304c0 14.67392-12.45184 26.56256-27.8016 26.56256H98.36032c-15.35488 0-27.8016-11.88864-27.8016-26.56256 0-14.6688 12.45184-26.56256 27.8016-26.56256h849.57184c15.34976 0 27.78624 11.89376 27.78624 26.56256zM709.72928 245.12512c-18.74432-1.8688-32.49152-18.64704-30.6176-37.39648 1.86368-18.75968 18.64704-32.50176 37.39136-30.62784 18.75968 1.86368 32.51712 18.64192 30.6432 37.4016-1.87392 18.75456-18.65216 32.50176-37.41696 30.62272zM808.45824 347.30496l-120.7808 35.51232-292.40832-186.1632-162.688 215.27552-88.36608-30.35648v237.09184L903.68 627.2l10.24-177.49504-105.46176-102.4z m87.59296 264.04352l-746.71616 2.70848v-183.296l99.87072 35.59424L406.4 258.3552l274.2016 174.57152 115.06176-33.82784 101.77024 94.58688-1.3824 117.66272zM975.7184 712.77568c0 14.6688-12.45184 26.56256-27.8016 26.56256H98.36032c-15.35488 0-27.8016-11.88864-27.8016-26.56256 0-14.66368 12.45184-26.56256 27.8016-26.56256h849.57184c15.34976-0.00512 27.78624 11.89888 27.78624 26.56256z" p-id="6718" data-spm-anchor-id="a313x.search_index.0.i13.21e83a81TD005L" class="selected" fill="#13227a"></path><path d="M496.57856 732.89216v205.96736a26.56768 26.56768 0 0 0 53.13024 0v-205.96736H496.57856zM298.02496 732.89216l-188.98432 188.928a26.55744 26.55744 0 1 0 40.79616 34.03264l223.01696-222.96064H298.02496zM748.3392 732.89216h-74.81344l226.29888 226.36032a26.5728 26.5728 0 0 0 37.4272-3.39968 26.5728 26.5728 0 0 0-3.39968-37.40672l-185.51296-185.55392z" p-id="6719" data-spm-anchor-id="a313x.search_index.0.i12.21e83a81TD005L" class="selected" fill="#13227a"></path></svg>