<?xml version="1.0" standalone="no"?><!DOCTYPE svg PUBLIC "-//W3C//DTD SVG 1.1//EN" "http://www.w3.org/Graphics/SVG/1.1/DTD/svg11.dtd"><svg height="1024" node-id="1" sillyvg="true" template-height="1024" template-width="1024" version="1.1" viewBox="0 0 1024 1024" width="1024" xmlns="http://www.w3.org/2000/svg" xmlns:xlink="http://www.w3.org/1999/xlink"><defs node-id="127"><linearGradient gradientUnits="objectBoundingBox" id="SVGID_1_" node-id="68" spreadMethod="pad" x1="503.8834" x2="512.2406" y1="621.5539" y2="753.2529"><stop offset="0" stop-color="#91b3ff"></stop><stop offset="0.4022" stop-color="#6791f2"></stop><stop offset="0.7939" stop-color="#3b6ce4"></stop></linearGradient><linearGradient gradientUnits="objectBoundingBox" id="SVGID_2_" node-id="73" spreadMethod="pad" x1="519.5884" x2="523.5714" y1="618.5692" y2="681.3364"><stop offset="0" stop-color="#91b3ff"></stop><stop offset="0.2484" stop-color="#6795ec"></stop><stop offset="0.7939" stop-color="#004cbf"></stop></linearGradient><linearGradient gradientUnits="objectBoundingBox" id="SVGID_3_" node-id="82" spreadMethod="pad" x1="744.0632" x2="707.1105" y1="649.3394" y2="599.0541"><stop offset="0" stop-color="#efbb81"></stop><stop offset="0.5011" stop-color="#f79e57"></stop><stop offset="1" stop-color="#ff7f2a"></stop></linearGradient><linearGradient gradientUnits="objectBoundingBox" id="SVGID_4_" node-id="91" spreadMethod="pad" x1="802.3936" x2="781.3106" y1="686.8685" y2="658.1788"><stop offset="0" stop-color="#efbb81"></stop><stop offset="0.5011" stop-color="#f79e57"></stop><stop offset="1" stop-color="#ff7f2a"></stop></linearGradient></defs><g node-id="404"><path d="M 609.60 595.90 L 414.60 595.90 L 413.00 595.70 L 411.60 595.10 L 410.40 594.10 L 409.40 592.90 L 408.80 591.50 L 408.60 589.90 L 409.40 586.90 L 411.60 584.70 L 413.00 584.10 L 414.60 583.90 L 609.60 583.90 L 611.20 584.10 L 613.80 585.70 L 614.80 586.90 L 615.40 588.30 L 615.60 589.90 L 615.40 591.50 L 614.80 592.90 L 613.80 594.10 L 611.20 595.70 L 609.60 595.90 Z" fill="#274da0" fill-rule="nonzero" group-id="1" node-id="166" stroke="none" target-height="12" target-width="206.99997" target-x="408.6" target-y="583.9"></path><g node-id="409"><path d="M 446.60 594.90 L 446.60 640.90 L 434.60 640.90 L 434.60 594.90 Z" fill="#274da0" fill-rule="nonzero" group-id="1,6" node-id="170" stroke="none" target-height="46" target-width="12" target-x="434.6" target-y="594.9"></path></g><path d="M 588.60 594.90 L 588.60 640.90 L 576.60 640.90 L 576.60 594.90 Z" fill="#274da0" fill-rule="nonzero" group-id="1,7" node-id="175" stroke="none" target-height="46" target-width="12" target-x="576.6" target-y="594.9"></path></g><g node-id="405"><g node-id="411"><path d="M 163.10 716.40 L 163.10 510.60 L 245.50 510.60 L 245.50 362.40 L 386.20 362.40 L 386.20 716.40 Z" fill="#ccdafe" fill-rule="nonzero" group-id="2,8" node-id="183" stroke="none" target-height="354.00003" target-width="223.1" target-x="163.1" target-y="362.4"></path><g node-id="414"><path d="M 259.50 386.90 L 288.30 386.90 L 288.30 409.90 L 259.50 409.90 Z" fill="#a8beef" fill-rule="nonzero" group-id="2,8,11" node-id="187" stroke="none" target-height="23" target-width="28.799988" target-x="259.5" target-y="386.9"></path><path d="M 302.70 386.90 L 331.50 386.90 L 331.50 409.90 L 302.70 409.90 Z" fill="#a8beef" fill-rule="nonzero" group-id="2,8,11" node-id="189" stroke="none" target-height="23" target-width="28.799988" target-x="302.7" target-y="386.9"></path><path d="M 345.90 386.90 L 374.70 386.90 L 374.70 409.90 L 345.90 409.90 Z" fill="#a8beef" fill-rule="nonzero" group-id="2,8,11" node-id="191" stroke="none" target-height="23" target-width="28.800018" target-x="345.9" target-y="386.9"></path><path d="M 259.50 422.90 L 288.30 422.90 L 288.30 445.90 L 259.50 445.90 Z" fill="#a8beef" fill-rule="nonzero" group-id="2,8,11" node-id="193" stroke="none" target-height="23" target-width="28.799988" target-x="259.5" target-y="422.9"></path><path d="M 302.70 422.90 L 331.50 422.90 L 331.50 445.90 L 302.70 445.90 Z" fill="#a8beef" fill-rule="nonzero" group-id="2,8,11" node-id="195" stroke="none" target-height="23" target-width="28.799988" target-x="302.7" target-y="422.9"></path><path d="M 345.90 422.90 L 374.70 422.90 L 374.70 445.90 L 345.90 445.90 Z" fill="#a8beef" fill-rule="nonzero" group-id="2,8,11" node-id="197" stroke="none" target-height="23" target-width="28.800018" target-x="345.9" target-y="422.9"></path><path d="M 259.50 458.80 L 288.30 458.80 L 288.30 481.80 L 259.50 481.80 Z" fill="#a8beef" fill-rule="nonzero" group-id="2,8,11" node-id="199" stroke="none" target-height="23" target-width="28.799988" target-x="259.5" target-y="458.8"></path><path d="M 302.70 458.80 L 331.50 458.80 L 331.50 481.80 L 302.70 481.80 Z" fill="#a8beef" fill-rule="nonzero" group-id="2,8,11" node-id="201" stroke="none" target-height="23" target-width="28.799988" target-x="302.7" target-y="458.8"></path><path d="M 345.90 458.80 L 374.70 458.80 L 374.70 481.80 L 345.90 481.80 Z" fill="#a8beef" fill-rule="nonzero" group-id="2,8,11" node-id="203" stroke="none" target-height="23" target-width="28.800018" target-x="345.9" target-y="458.8"></path><path d="M 259.50 494.80 L 288.30 494.80 L 288.30 517.80 L 259.50 517.80 Z" fill="#a8beef" fill-rule="nonzero" group-id="2,8,11" node-id="205" stroke="none" target-height="23" target-width="28.799988" target-x="259.5" target-y="494.8"></path><path d="M 302.70 494.80 L 331.50 494.80 L 331.50 517.80 L 302.70 517.80 Z" fill="#a8beef" fill-rule="nonzero" group-id="2,8,11" node-id="207" stroke="none" target-height="23" target-width="28.799988" target-x="302.7" target-y="494.8"></path><path d="M 345.90 494.80 L 374.70 494.80 L 374.70 517.80 L 345.90 517.80 Z" fill="#a8beef" fill-rule="nonzero" group-id="2,8,11" node-id="209" stroke="none" target-height="23" target-width="28.800018" target-x="345.9" target-y="494.8"></path><path d="M 259.50 530.80 L 288.30 530.80 L 288.30 553.80 L 259.50 553.80 Z" fill="#a8beef" fill-rule="nonzero" group-id="2,8,11" node-id="211" stroke="none" target-height="23" target-width="28.799988" target-x="259.5" target-y="530.8"></path><path d="M 216.40 530.80 L 245.20 530.80 L 245.20 553.80 L 216.40 553.80 Z" fill="#a8beef" fill-rule="nonzero" group-id="2,8,11" node-id="213" stroke="none" target-height="23" target-width="28.800003" target-x="216.4" target-y="530.8"></path><path d="M 173.20 530.80 L 202.00 530.80 L 202.00 553.80 L 173.20 553.80 Z" fill="#a8beef" fill-rule="nonzero" group-id="2,8,11" node-id="215" stroke="none" target-height="23" target-width="28.800003" target-x="173.2" target-y="530.8"></path><path d="M 302.70 530.80 L 331.50 530.80 L 331.50 553.80 L 302.70 553.80 Z" fill="#a8beef" fill-rule="nonzero" group-id="2,8,11" node-id="217" stroke="none" target-height="23" target-width="28.799988" target-x="302.7" target-y="530.8"></path><path d="M 345.90 530.80 L 374.70 530.80 L 374.70 553.80 L 345.90 553.80 Z" fill="#a8beef" fill-rule="nonzero" group-id="2,8,11" node-id="219" stroke="none" target-height="23" target-width="28.800018" target-x="345.9" target-y="530.8"></path><path d="M 259.50 566.80 L 288.30 566.80 L 288.30 589.80 L 259.50 589.80 Z" fill="#a8beef" fill-rule="nonzero" group-id="2,8,11" node-id="221" stroke="none" target-height="23" target-width="28.799988" target-x="259.5" target-y="566.8"></path><path d="M 216.40 566.80 L 245.20 566.80 L 245.20 589.80 L 216.40 589.80 Z" fill="#a8beef" fill-rule="nonzero" group-id="2,8,11" node-id="223" stroke="none" target-height="23" target-width="28.800003" target-x="216.4" target-y="566.8"></path><path d="M 173.20 566.80 L 202.00 566.80 L 202.00 589.80 L 173.20 589.80 Z" fill="#a8beef" fill-rule="nonzero" group-id="2,8,11" node-id="225" stroke="none" target-height="23" target-width="28.800003" target-x="173.2" target-y="566.8"></path><path d="M 302.70 566.80 L 331.50 566.80 L 331.50 589.80 L 302.70 589.80 Z" fill="#a8beef" fill-rule="nonzero" group-id="2,8,11" node-id="227" stroke="none" target-height="23" target-width="28.799988" target-x="302.7" target-y="566.8"></path><path d="M 345.90 566.80 L 374.70 566.80 L 374.70 589.80 L 345.90 589.80 Z" fill="#a8beef" fill-rule="nonzero" group-id="2,8,11" node-id="229" stroke="none" target-height="23" target-width="28.800018" target-x="345.9" target-y="566.8"></path><path d="M 259.50 602.80 L 288.30 602.80 L 288.30 625.80 L 259.50 625.80 Z" fill="#a8beef" fill-rule="nonzero" group-id="2,8,11" node-id="231" stroke="none" target-height="23" target-width="28.799988" target-x="259.5" target-y="602.8"></path><path d="M 216.40 602.80 L 245.20 602.80 L 245.20 625.80 L 216.40 625.80 Z" fill="#a8beef" fill-rule="nonzero" group-id="2,8,11" node-id="233" stroke="none" target-height="23" target-width="28.800003" target-x="216.4" target-y="602.8"></path><path d="M 173.20 602.80 L 202.00 602.80 L 202.00 625.80 L 173.20 625.80 Z" fill="#a8beef" fill-rule="nonzero" group-id="2,8,11" node-id="235" stroke="none" target-height="23" target-width="28.800003" target-x="173.2" target-y="602.8"></path><path d="M 302.70 602.80 L 331.50 602.80 L 331.50 625.80 L 302.70 625.80 Z" fill="#a8beef" fill-rule="nonzero" group-id="2,8,11" node-id="237" stroke="none" target-height="23" target-width="28.799988" target-x="302.7" target-y="602.8"></path><path d="M 345.90 602.80 L 374.70 602.80 L 374.70 625.80 L 345.90 625.80 Z" fill="#a8beef" fill-rule="nonzero" group-id="2,8,11" node-id="239" stroke="none" target-height="23" target-width="28.800018" target-x="345.9" target-y="602.8"></path><path d="M 259.50 638.70 L 288.30 638.70 L 288.30 661.70 L 259.50 661.70 Z" fill="#a8beef" fill-rule="nonzero" group-id="2,8,11" node-id="241" stroke="none" target-height="23" target-width="28.799988" target-x="259.5" target-y="638.7"></path><path d="M 216.40 638.70 L 245.20 638.70 L 245.20 661.70 L 216.40 661.70 Z" fill="#a8beef" fill-rule="nonzero" group-id="2,8,11" node-id="243" stroke="none" target-height="23" target-width="28.800003" target-x="216.4" target-y="638.7"></path><path d="M 173.20 638.70 L 202.00 638.70 L 202.00 661.70 L 173.20 661.70 Z" fill="#a8beef" fill-rule="nonzero" group-id="2,8,11" node-id="245" stroke="none" target-height="23" target-width="28.800003" target-x="173.2" target-y="638.7"></path><path d="M 302.70 638.70 L 331.50 638.70 L 331.50 661.70 L 302.70 661.70 Z" fill="#a8beef" fill-rule="nonzero" group-id="2,8,11" node-id="247" stroke="none" target-height="23" target-width="28.799988" target-x="302.7" target-y="638.7"></path><path d="M 345.90 638.70 L 374.70 638.70 L 374.70 661.70 L 345.90 661.70 Z" fill="#a8beef" fill-rule="nonzero" group-id="2,8,11" node-id="249" stroke="none" target-height="23" target-width="28.800018" target-x="345.9" target-y="638.7"></path></g></g><g node-id="412"><path d="M 635.10 713.60 L 635.10 584.00 L 698.50 584.00 L 698.50 434.40 L 794.90 434.40 L 794.90 504.90 L 851.00 504.90 L 851.00 713.60 Z" fill="#ccdafe" fill-rule="nonzero" group-id="2,9" node-id="255" stroke="none" target-height="279.19998" target-width="215.90002" target-x="635.1" target-y="434.4"></path><g node-id="415"><path d="M 712.90 453.10 L 741.70 453.10 L 741.70 476.10 L 712.90 476.10 Z" fill="#a8beef" fill-rule="nonzero" group-id="2,9,12" node-id="259" stroke="none" target-height="23" target-width="28.799988" target-x="712.9" target-y="453.1"></path><path d="M 753.10 453.10 L 781.90 453.10 L 781.90 476.10 L 753.10 476.10 Z" fill="#a8beef" fill-rule="nonzero" group-id="2,9,12" node-id="261" stroke="none" target-height="23" target-width="28.800049" target-x="753.1" target-y="453.1"></path><path d="M 712.90 597.00 L 741.70 597.00 L 741.70 620.00 L 712.90 620.00 Z" fill="#a8beef" fill-rule="nonzero" group-id="2,9,12" node-id="263" stroke="none" target-height="23" target-width="28.799988" target-x="712.9" target-y="597"></path><path d="M 672.60 597.00 L 701.40 597.00 L 701.40 620.00 L 672.60 620.00 Z" fill="#a8beef" fill-rule="nonzero" group-id="2,9,12" node-id="265" stroke="none" target-height="23" target-width="28.800049" target-x="672.6" target-y="597"></path><path d="M 672.60 633.00 L 701.40 633.00 L 701.40 656.00 L 672.60 656.00 Z" fill="#a8beef" fill-rule="nonzero" group-id="2,9,12" node-id="267" stroke="none" target-height="23" target-width="28.800049" target-x="672.6" target-y="633"></path><path d="M 753.10 597.00 L 781.90 597.00 L 781.90 620.00 L 753.10 620.00 Z" fill="#a8beef" fill-rule="nonzero" group-id="2,9,12" node-id="269" stroke="none" target-height="23" target-width="28.800049" target-x="753.1" target-y="597"></path><path d="M 712.90 489.10 L 741.70 489.10 L 741.70 512.10 L 712.90 512.10 Z" fill="#a8beef" fill-rule="nonzero" group-id="2,9,12" node-id="271" stroke="none" target-height="22.99997" target-width="28.799988" target-x="712.9" target-y="489.1"></path><path d="M 753.10 489.10 L 781.90 489.10 L 781.90 512.10 L 753.10 512.10 Z" fill="#a8beef" fill-rule="nonzero" group-id="2,9,12" node-id="273" stroke="none" target-height="22.99997" target-width="28.800049" target-x="753.1" target-y="489.1"></path><path d="M 712.90 525.00 L 741.70 525.00 L 741.70 548.00 L 712.90 548.00 Z" fill="#a8beef" fill-rule="nonzero" group-id="2,9,12" node-id="275" stroke="none" target-height="23" target-width="28.799988" target-x="712.9" target-y="525"></path><path d="M 753.10 525.00 L 781.90 525.00 L 781.90 548.00 L 753.10 548.00 Z" fill="#a8beef" fill-rule="nonzero" group-id="2,9,12" node-id="277" stroke="none" target-height="23" target-width="28.800049" target-x="753.1" target-y="525"></path><path d="M 793.40 525.00 L 822.20 525.00 L 822.20 548.00 L 793.40 548.00 Z" fill="#a8beef" fill-rule="nonzero" group-id="2,9,12" node-id="279" stroke="none" target-height="23" target-width="28.799988" target-x="793.4" target-y="525"></path><path d="M 793.40 561.00 L 822.20 561.00 L 822.20 584.00 L 793.40 584.00 Z" fill="#a8beef" fill-rule="nonzero" group-id="2,9,12" node-id="281" stroke="none" target-height="23" target-width="28.799988" target-x="793.4" target-y="561"></path><path d="M 793.40 597.00 L 822.20 597.00 L 822.20 620.00 L 793.40 620.00 Z" fill="#a8beef" fill-rule="nonzero" group-id="2,9,12" node-id="283" stroke="none" target-height="23" target-width="28.799988" target-x="793.4" target-y="597"></path><path d="M 793.40 633.00 L 822.20 633.00 L 822.20 656.00 L 793.40 656.00 Z" fill="#a8beef" fill-rule="nonzero" group-id="2,9,12" node-id="285" stroke="none" target-height="23" target-width="28.799988" target-x="793.4" target-y="633"></path><path d="M 712.90 561.00 L 741.70 561.00 L 741.70 584.00 L 712.90 584.00 Z" fill="#a8beef" fill-rule="nonzero" group-id="2,9,12" node-id="287" stroke="none" target-height="23" target-width="28.799988" target-x="712.9" target-y="561"></path><path d="M 753.10 561.00 L 781.90 561.00 L 781.90 584.00 L 753.10 584.00 Z" fill="#a8beef" fill-rule="nonzero" group-id="2,9,12" node-id="289" stroke="none" target-height="23" target-width="28.800049" target-x="753.1" target-y="561"></path><path d="M 712.90 633.00 L 741.70 633.00 L 741.70 656.00 L 712.90 656.00 Z" fill="#a8beef" fill-rule="nonzero" group-id="2,9,12" node-id="291" stroke="none" target-height="23" target-width="28.799988" target-x="712.9" target-y="633"></path><path d="M 753.10 633.00 L 781.90 633.00 L 781.90 656.00 L 753.10 656.00 Z" fill="#a8beef" fill-rule="nonzero" group-id="2,9,12" node-id="293" stroke="none" target-height="23" target-width="28.800049" target-x="753.1" target-y="633"></path></g></g><g node-id="413"><g node-id="416"><path d="M 92.60 751.00 L 105.20 741.70 L 128.30 726.70 L 155.60 710.60 L 182.80 696.40 L 197.30 689.30 L 213.30 682.10 L 230.70 674.60 L 248.30 667.60 L 267.20 660.80 L 287.50 654.00 L 318.60 644.80 L 335.10 640.60 L 352.40 636.50 L 369.60 633.00 L 387.40 629.80 L 405.80 626.90 L 424.90 624.50 L 443.80 622.60 L 463.40 621.20 L 483.50 620.30 L 504.20 620.00 L 521.70 620.30 L 539.00 621.00 L 556.00 622.10 L 572.80 623.70 L 606.10 628.00 L 638.20 633.60 L 659.30 638.10 L 679.60 643.00 L 699.30 648.30 L 718.90 654.10 L 737.50 660.00 L 773.00 672.60 L 805.30 685.50 L 828.10 695.50 L 848.30 704.90 L 867.30 714.30 L 883.30 722.70 L 909.50 737.40 L 931.60 751.00 L 914.70 745.90 L 888.80 739.80 L 859.20 734.40 L 842.80 732.00 L 823.80 729.70 L 801.80 727.50 L 779.80 725.90 L 755.00 724.60 L 727.20 723.70 L 714.50 723.70 L 702.30 724.20 L 690.50 725.00 L 672.80 726.90 L 655.50 729.40 L 603.00 738.50 L 572.00 743.30 L 545.20 746.30 L 531.50 747.30 L 516.90 748.00 L 501.30 748.20 L 479.60 748.00 L 439.30 746.20 L 420.00 744.90 L 343.20 738.10 L 302.40 734.90 L 258.10 732.40 L 243.60 732.00 L 229.50 732.10 L 215.80 732.50 L 189.10 734.40 L 158.70 737.90 L 128.10 743.00 L 116.30 745.40 L 92.60 751.00 Z" fill="url(#SVGID_1_)" fill-rule="nonzero" group-id="2,10,13" node-id="301" stroke="none" target-height="131" target-width="839" target-x="92.6" target-y="620"></path><path d="M 429.30 624.00 L 424.50 628.00 L 421.70 632.20 L 420.90 634.40 L 420.70 636.50 L 421.00 638.90 L 421.90 641.30 L 423.50 643.80 L 425.80 646.30 L 431.50 650.50 L 440.00 654.80 L 446.20 657.10 L 453.40 659.40 L 470.00 663.10 L 489.10 665.80 L 499.10 666.70 L 520.70 667.40 L 531.80 667.20 L 552.30 665.80 L 562.30 664.60 L 579.70 661.40 L 588.00 659.30 L 595.20 657.10 L 606.00 652.60 L 609.90 650.50 L 615.60 646.20 L 617.90 643.70 L 619.50 641.30 L 620.40 638.90 L 620.70 636.50 L 620.40 634.40 L 619.70 632.20 L 618.40 629.90 L 600.10 627.00 L 581.40 624.60 L 562.40 622.60 L 543.30 621.10 L 523.80 620.20 L 504.10 619.90 L 484.80 620.20 L 466.00 621.10 L 447.40 622.30 L 429.30 624.00 Z" fill="url(#SVGID_2_)" fill-rule="nonzero" group-id="2,10,13" node-id="303" stroke="none" target-height="47.5" target-width="200" target-x="420.7" target-y="619.9"></path><g node-id="418"><path d="M 387.20 677.30 L 387.30 680.50 L 385.40 684.20 L 383.50 686.60 L 380.80 689.10 L 377.20 691.90 L 369.00 696.80 L 363.90 699.30 L 353.00 703.70 L 346.80 705.60 L 340.50 707.30 L 328.90 709.60 L 323.30 710.20 L 313.70 710.50 L 309.20 710.10 L 305.60 709.40 L 302.70 708.50 L 300.60 707.50 L 299.10 706.30 L 298.10 705.10 L 297.40 703.60 L 297.20 702.10 L 297.40 700.50 L 298.00 698.70 L 299.20 696.70 L 301.10 694.40 L 303.80 691.80 L 307.40 689.10 L 315.60 684.10 L 320.70 681.60 L 331.70 677.30 L 337.90 675.30 L 344.20 673.60 L 355.70 671.40 L 361.40 670.70 L 370.90 670.40 L 375.40 670.80 L 379.10 671.50 L 382.00 672.40 L 384.00 673.50 L 385.50 674.60 L 386.60 675.90 L 387.20 677.30 Z" fill="#3b6ce4" fill-rule="nonzero" group-id="2,10,13,15" node-id="307" stroke="none" target-height="40.099976" target-width="90.099976" target-x="297.2" target-y="670.4"></path></g><path d="M 562.40 699.70 L 568.10 701.70 L 573.20 704.00 L 578.00 706.70 L 581.80 709.40 L 585.80 713.40 L 587.70 717.00 L 588.00 718.70 L 587.70 720.20 L 587.10 721.60 L 585.90 722.90 L 584.20 724.00 L 579.80 725.50 L 576.80 725.90 L 572.00 726.00 L 566.60 725.60 L 561.10 724.60 L 555.30 723.10 L 549.70 721.10 L 544.50 718.80 L 539.80 716.20 L 535.90 713.40 L 532.00 709.50 L 530.00 705.80 L 529.80 704.10 L 530.00 702.60 L 530.70 701.20 L 531.80 699.90 L 533.50 698.80 L 537.90 697.30 L 541.00 696.90 L 545.70 696.80 L 551.10 697.30 L 556.60 698.20 L 562.40 699.70 Z" fill="#3b6ce4" fill-rule="nonzero" group-id="2,10,13,16" node-id="312" stroke="none" target-height="29.200012" target-width="58.200012" target-x="529.8" target-y="696.8"></path></g><g node-id="417"><g node-id="420"><path d="M 749.80 628.00 L 752.10 625.30 L 753.90 622.40 L 755.20 619.30 L 756.10 616.10 L 756.40 612.80 L 756.20 609.40 L 755.50 606.40 L 754.40 603.60 L 753.00 601.00 L 751.20 598.60 L 746.70 594.60 L 741.00 591.60 L 741.10 588.90 L 740.80 586.00 L 739.90 583.00 L 738.60 580.40 L 736.80 578.10 L 734.70 576.20 L 732.30 574.60 L 729.70 573.40 L 726.90 572.70 L 724.00 572.60 L 721.00 572.90 L 718.10 573.80 L 715.50 575.10 L 713.20 576.90 L 711.30 579.00 L 709.70 581.40 L 708.60 584.00 L 707.90 586.80 L 707.80 589.70 L 708.10 592.80 L 709.20 596.10 L 706.70 598.30 L 702.80 603.20 L 701.30 605.90 L 700.20 608.70 L 699.50 611.60 L 699.30 614.60 L 699.50 617.70 L 700.10 620.50 L 702.40 625.50 L 704.00 627.80 L 701.50 629.70 L 697.90 633.70 L 696.60 636.00 L 695.90 638.30 L 695.60 640.80 L 695.90 643.40 L 696.70 645.80 L 698.10 648.20 L 699.80 650.30 L 702.00 652.30 L 704.70 654.20 L 711.00 657.20 L 718.50 659.10 L 722.50 659.60 L 726.80 659.80 L 735.10 659.10 L 738.90 658.30 L 745.90 655.80 L 751.60 652.30 L 753.80 650.30 L 755.50 648.20 L 756.90 645.80 L 757.70 643.40 L 758.00 640.80 L 757.70 638.40 L 757.00 636.10 L 755.80 633.80 L 754.20 631.80 L 749.80 628.00 Z" fill="url(#SVGID_3_)" fill-rule="nonzero" group-id="2,10,14,17" node-id="320" stroke="none" target-height="87.20001" target-width="62.400024" target-x="695.6" target-y="572.6"></path><g node-id="422"><g node-id="424"><path d="M 726.20 686.30 L 725.20 684.60 L 724.90 683.40 L 727.00 660.10 L 727.20 651.70 L 727.10 639.80 L 726.50 631.60 L 724.60 619.50 L 724.70 618.30 L 725.40 616.30 L 726.20 615.70 L 726.90 615.70 L 727.50 616.30 L 728.00 617.70 L 729.90 630.10 L 730.70 643.00 L 730.80 651.90 L 729.70 671.40 L 728.40 683.80 L 727.50 686.00 L 726.90 686.40 L 726.20 686.30 Z" fill="#ff7f2a" fill-rule="nonzero" group-id="2,10,14,17,19,21" node-id="326" stroke="none" target-height="70.70001" target-width="6.200012" target-x="724.6" target-y="615.7"></path></g></g></g><g node-id="421"><path d="M 805.70 674.70 L 807.50 672.40 L 808.80 669.80 L 809.30 667.90 L 809.40 664.10 L 808.80 661.80 L 807.90 659.80 L 804.90 656.40 L 800.70 653.90 L 800.60 650.70 L 800.10 649.00 L 798.30 646.20 L 796.40 644.60 L 794.30 643.50 L 791.00 643.00 L 789.30 643.20 L 786.10 644.50 L 784.90 645.50 L 783.30 647.40 L 782.20 649.60 L 781.80 652.80 L 782.60 656.50 L 779.20 660.00 L 778.10 662.00 L 777.30 664.20 L 777.00 666.50 L 777.10 668.80 L 777.60 670.90 L 778.50 672.80 L 779.70 674.60 L 777.60 676.20 L 776.20 677.90 L 775.20 679.90 L 774.90 682.00 L 775.20 683.90 L 776.00 685.70 L 777.30 687.50 L 779.00 688.90 L 781.10 690.20 L 786.40 692.10 L 792.70 692.80 L 799.00 692.10 L 804.30 690.20 L 808.10 687.40 L 809.40 685.70 L 810.20 683.90 L 810.50 682.00 L 810.10 680.00 L 809.10 678.00 L 807.70 676.30 L 805.70 674.70 Z" fill="url(#SVGID_4_)" fill-rule="nonzero" group-id="2,10,14,18" node-id="333" stroke="none" target-height="49.799988" target-width="35.599976" target-x="774.9" target-y="643"></path><g node-id="423"><g node-id="425"><path d="M 792.20 708.00 L 791.60 707.10 L 791.50 705.50 L 792.50 695.70 L 792.70 681.50 L 791.30 669.10 L 791.70 668.00 L 792.50 667.60 L 793.20 668.80 L 794.30 675.90 L 794.80 688.30 L 794.40 696.30 L 793.40 706.50 L 793.00 707.80 L 792.20 708.00 Z" fill="#ff7f2a" fill-rule="nonzero" group-id="2,10,14,18,20,22" node-id="339" stroke="none" target-height="40.400024" target-width="3.5" target-x="791.3" target-y="667.6"></path></g></g></g></g></g></g><path d="M 717.00 552.10 L 307.20 552.10 L 305.30 551.90 L 302.10 550.70 L 299.50 548.50 L 298.50 547.10 L 297.30 543.90 L 297.10 542.00 L 297.10 282.20 L 297.70 278.70 L 299.50 275.70 L 302.10 273.50 L 305.30 272.30 L 717.00 272.10 L 718.90 272.30 L 722.10 273.50 L 723.50 274.50 L 725.70 277.10 L 726.90 280.30 L 727.10 282.20 L 727.10 542.00 L 726.50 545.50 L 724.70 548.50 L 722.10 550.70 L 720.50 551.50 L 717.00 552.10 Z" fill="#3b6ce4" fill-rule="nonzero" node-id="347" stroke="none" target-height="279.99997" target-width="429.99997" target-x="297.1" target-y="272.1"></path><path d="M 727.10 322.10 L 297.10 322.10 L 297.30 280.30 L 298.50 277.10 L 300.70 274.50 L 303.60 272.70 L 307.10 272.10 L 718.90 272.30 L 722.10 273.50 L 724.70 275.70 L 726.50 278.60 L 726.90 280.30 L 727.10 322.10 Z" fill="#5d94fa" fill-rule="nonzero" node-id="349" stroke="none" target-height="50" target-width="429.99997" target-x="297.1" target-y="272.1"></path><path d="M 339.10 306.10 L 325.10 306.10 L 323.00 305.80 L 321.10 305.00 L 319.50 303.80 L 318.20 302.10 L 317.40 300.20 L 317.10 298.10 L 317.40 296.00 L 318.20 294.10 L 319.40 292.50 L 321.10 291.20 L 323.00 290.40 L 325.10 290.10 L 339.10 290.10 L 341.20 290.40 L 343.10 291.20 L 344.80 292.50 L 346.00 294.10 L 346.80 296.00 L 347.10 298.10 L 346.80 300.20 L 346.00 302.10 L 344.70 303.70 L 343.10 305.00 L 341.20 305.80 L 339.10 306.10 Z" fill="#ffffff" fill-rule="nonzero" node-id="351" stroke="none" target-height="16" target-width="30" target-x="317.1" target-y="290.1"></path><path d="M 635.20 306.10 L 365.10 306.10 L 363.00 305.80 L 361.10 305.00 L 359.50 303.80 L 358.20 302.10 L 357.40 300.20 L 357.10 298.10 L 357.40 296.00 L 358.20 294.10 L 359.50 292.50 L 361.10 291.20 L 363.00 290.40 L 365.10 290.10 L 635.20 290.10 L 637.30 290.40 L 639.20 291.20 L 640.90 292.40 L 642.10 294.10 L 642.90 296.00 L 643.20 298.10 L 642.90 300.20 L 642.10 302.10 L 640.90 303.80 L 639.20 305.00 L 637.30 305.80 L 635.20 306.10 Z" fill="#ffffff" fill-rule="nonzero" node-id="353" stroke="none" target-height="16" target-width="286.1" target-x="357.1" target-y="290.1"></path><g node-id="406"><path d="M 690.00 281.10 L 689.80 282.50 L 688.50 284.60 L 686.40 285.90 L 685.00 286.10 L 682.50 285.40 L 680.70 283.60 L 680.20 282.50 L 680.00 281.10 L 680.70 278.60 L 682.50 276.80 L 685.00 276.10 L 686.40 276.30 L 688.50 277.60 L 689.80 279.70 L 690.00 281.10 Z" fill="#ffffff" fill-rule="nonzero" group-id="3" node-id="357" stroke="none" target-height="10" target-width="10" target-x="680" target-y="276.1"></path><path d="M 706.00 281.10 L 705.80 282.50 L 704.50 284.60 L 702.40 285.90 L 701.00 286.10 L 698.50 285.40 L 696.70 283.60 L 696.20 282.50 L 696.00 281.10 L 696.70 278.60 L 698.50 276.80 L 701.00 276.10 L 702.40 276.30 L 704.50 277.60 L 705.80 279.70 L 706.00 281.10 Z" fill="#ffffff" fill-rule="nonzero" group-id="3" node-id="359" stroke="none" target-height="10" target-width="10" target-x="696" target-y="276.1"></path><path d="M 722.00 281.10 L 721.80 282.50 L 720.50 284.60 L 718.40 285.90 L 717.00 286.10 L 714.50 285.40 L 712.70 283.60 L 712.20 282.50 L 712.00 281.10 L 712.70 278.60 L 714.50 276.80 L 717.00 276.10 L 718.40 276.30 L 720.50 277.60 L 721.80 279.70 L 722.00 281.10 Z" fill="#ffffff" fill-rule="nonzero" group-id="3" node-id="361" stroke="none" target-height="10" target-width="10" target-x="712" target-y="276.1"></path></g><g node-id="407"><path d="M 550.10 575.70 L 473.20 575.50 L 472.20 574.50 L 472.00 573.70 L 472.00 531.60 L 472.60 530.20 L 474.00 529.60 L 550.90 529.80 L 551.90 530.80 L 552.10 531.60 L 552.10 573.70 L 551.50 575.10 L 550.10 575.70 Z" fill="#353535" fill-rule="nonzero" group-id="4" node-id="366" stroke="none" target-height="46.100037" target-width="80.099976" target-x="472" target-y="529.6"></path><path d="M 474.10 532.70 L 550.10 532.70 L 550.10 572.70 L 474.10 572.70 Z" fill="#ffffff" fill-rule="nonzero" group-id="4" node-id="368" stroke="none" target-height="40" target-width="75.99997" target-x="474.1" target-y="532.7"></path></g><g node-id="408"><path d="M 509.30 559.20 L 518.30 559.20 L 518.30 574.60 L 508.50 574.60 Z" fill="#fdcaca" fill-rule="nonzero" group-id="5" node-id="373" stroke="none" target-height="15.399963" target-width="9.799988" target-x="508.5" target-y="559.2"></path><path d="M 502.20 549.80 L 500.40 550.10 L 499.60 551.10 L 500.10 555.30 L 500.70 556.60 L 501.30 556.90 L 502.00 556.80 L 503.90 555.60 L 502.20 549.80 Z" fill="#fdcaca" fill-rule="nonzero" group-id="5" node-id="375" stroke="none" target-height="7.1000366" target-width="4.299988" target-x="499.6" target-y="549.8"></path><path d="M 521.10 555.70 L 524.20 556.70 L 524.80 556.50 L 525.50 555.70 L 526.10 554.40 L 526.50 553.00 L 526.60 550.50 L 526.30 550.10 L 525.50 549.90 L 523.40 549.80 L 523.10 549.90 L 521.10 555.70 Z" fill="#fdcaca" fill-rule="nonzero" group-id="5" node-id="377" stroke="none" target-height="6.9000244" target-width="5.5" target-x="521.1" target-y="549.8"></path><path d="M 491.40 617.10 L 484.70 614.50 L 481.90 613.80 L 477.30 613.50 L 474.50 614.50 L 470.80 617.30 L 469.00 619.20 L 468.20 621.10 L 468.20 621.90 L 470.00 628.20 L 471.90 633.40 L 474.90 639.90 L 481.90 648.90 L 483.30 651.20 L 486.40 659.70 L 489.10 665.00 L 492.00 668.30 L 494.70 669.50 L 508.00 671.10 L 521.10 671.90 L 527.90 671.40 L 529.80 670.80 L 532.30 669.20 L 536.00 665.90 L 538.80 662.10 L 541.40 654.90 L 548.70 644.20 L 551.00 640.20 L 553.40 633.00 L 554.70 626.50 L 553.60 623.50 L 551.30 619.90 L 549.20 617.50 L 548.50 617.30 L 547.10 617.50 L 544.00 618.60 L 541.00 620.20 L 538.60 622.00 L 536.20 622.30 L 519.90 623.00 L 491.40 623.30 L 491.40 617.10 Z" fill="#274da0" fill-rule="nonzero" group-id="5" node-id="379" stroke="none" target-height="58.400024" target-width="86.5" target-x="468.2" target-y="613.5"></path><path d="M 527.10 526.20 L 525.80 524.60 L 524.50 523.70 L 523.20 523.20 L 521.00 523.20 L 518.80 523.80 L 516.80 524.80 L 513.40 527.20 L 508.60 526.70 L 505.30 527.40 L 501.00 529.80 L 499.80 531.00 L 499.00 532.40 L 498.50 534.50 L 497.90 540.80 L 498.10 545.50 L 499.30 548.80 L 500.10 549.70 L 501.00 550.40 L 502.30 550.50 L 502.40 555.40 L 503.70 559.70 L 504.70 561.20 L 506.20 562.70 L 508.00 563.90 L 509.40 564.60 L 512.40 565.20 L 514.70 565.10 L 517.10 564.40 L 520.10 562.40 L 521.50 560.60 L 522.00 559.20 L 523.80 549.70 L 525.40 548.20 L 526.30 546.50 L 528.30 540.20 L 528.80 536.40 L 528.90 532.70 L 528.60 530.20 L 527.10 526.20 Z" fill="#63393f" fill-rule="nonzero" group-id="5" node-id="381" stroke="none" target-height="42" target-width="31.00003" target-x="497.9" target-y="523.2"></path><path d="M 555.90 613.20 L 549.40 593.50 L 544.40 582.50 L 542.60 579.60 L 541.50 578.40 L 529.80 573.00 L 528.00 571.90 L 524.90 568.90 L 521.80 566.90 L 516.50 567.60 L 511.90 567.60 L 505.90 566.60 L 505.10 566.70 L 503.30 569.00 L 501.50 570.40 L 494.90 572.50 L 488.40 576.00 L 482.50 579.70 L 480.20 582.40 L 478.90 584.70 L 477.40 588.30 L 470.20 612.30 L 469.90 613.90 L 470.10 615.10 L 471.20 616.80 L 475.60 613.80 L 478.80 613.40 L 484.00 614.30 L 488.70 615.90 L 488.90 622.50 L 488.70 625.30 L 488.00 628.20 L 485.90 633.50 L 485.40 635.70 L 484.90 642.50 L 485.20 646.80 L 486.50 654.70 L 487.60 657.90 L 488.70 659.90 L 490.40 662.00 L 495.40 666.70 L 497.40 667.80 L 512.50 669.20 L 519.70 669.40 L 525.10 668.90 L 528.20 667.40 L 529.70 666.20 L 533.50 661.80 L 536.20 657.30 L 540.30 648.30 L 541.50 643.70 L 541.60 641.40 L 541.20 639.50 L 539.10 635.60 L 536.20 632.60 L 537.20 621.90 L 538.80 621.50 L 540.60 620.00 L 543.60 618.40 L 546.80 617.30 L 548.80 617.30 L 550.70 619.30 L 554.10 618.30 L 554.90 617.70 L 556.10 615.80 L 555.90 613.20 Z M 486.70 603.80 L 488.30 611.80 L 484.30 609.70 L 486.70 603.80 Z M 538.20 612.40 L 539.00 603.90 L 541.70 610.60 L 538.20 612.40 Z" fill="#dbeefe" fill-rule="nonzero" group-id="5" node-id="383" stroke="none" target-height="102.80005" target-width="86.19998" target-x="469.9" target-y="566.6"></path><path d="M 512.90 571.40 L 519.70 571.10 L 524.00 569.60 L 525.00 569.00 L 521.80 567.00 L 513.60 567.70 L 505.10 566.50 L 502.40 569.60 L 508.60 570.90 L 512.90 571.40 Z" fill="#b9d8ed" fill-rule="nonzero" group-id="5" node-id="385" stroke="none" target-height="4.9000244" target-width="22.600006" target-x="502.4" target-y="566.5"></path><path d="M 483.90 616.70 L 488.90 622.70 L 488.80 618.60 Z" fill="#173872" fill-rule="nonzero" group-id="5" node-id="387" stroke="none" target-height="6" target-width="5" target-x="483.9" target-y="616.7"></path><path d="M 537.00 625.20 L 540.00 623.20 L 536.80 627.20 Z" fill="#173872" fill-rule="nonzero" group-id="5" node-id="389" stroke="none" target-height="4" target-width="3.2000122" target-x="536.8" target-y="623.2"></path><path d="M 484.70 608.90 L 480.20 611.00 L 485.90 610.50 L 484.40 609.70 Z" fill="#b9d8ed" fill-rule="nonzero" group-id="5" node-id="391" stroke="none" target-height="2.0999756" target-width="5.6999817" target-x="480.2" target-y="608.9"></path><path d="M 541.00 608.90 L 545.00 611.10 L 540.50 611.10 L 541.70 610.50 Z" fill="#b9d8ed" fill-rule="nonzero" group-id="5" node-id="393" stroke="none" target-height="2.1999512" target-width="4.5" target-x="540.5" target-y="608.9"></path><path d="M 486.50 604.50 L 486.70 603.80 L 486.90 604.50 L 486.50 595.70 Z" fill="#b9d8ed" fill-rule="nonzero" group-id="5" node-id="395" stroke="none" target-height="8.799988" target-width="0.3999939" target-x="486.5" target-y="595.7"></path><path d="M 538.80 605.10 L 538.20 592.40 L 539.60 605.40 L 539.00 603.90 Z" fill="#b9d8ed" fill-rule="nonzero" group-id="5" node-id="397" stroke="none" target-height="13" target-width="1.3999634" target-x="538.2" target-y="592.4"></path></g><path d="M 683.70 351.60 L 638.40 363.70 L 636.80 364.50 L 635.70 365.60 L 635.00 367.10 L 634.80 368.70 L 635.20 370.30 L 636.20 371.70 L 646.90 382.40 L 588.00 440.30 L 585.40 441.80 L 582.50 441.80 L 579.90 440.40 L 529.30 393.20 L 527.70 392.00 L 525.90 391.40 L 524.10 391.20 L 522.20 391.50 L 520.50 392.30 L 519.00 393.60 L 459.90 457.20 L 457.30 458.80 L 454.40 458.90 L 451.70 457.60 L 408.60 419.40 L 406.90 418.30 L 405.10 417.70 L 403.20 417.60 L 401.40 418.00 L 399.70 418.80 L 398.20 420.20 L 330.20 501.30 L 328.90 503.40 L 328.20 505.60 L 328.10 507.90 L 328.60 510.10 L 329.70 512.20 L 331.30 514.00 L 333.40 515.30 L 335.60 516.00 L 337.90 516.10 L 340.10 515.60 L 342.20 514.50 L 344.00 512.90 L 401.00 444.80 L 402.20 443.70 L 403.50 443.00 L 406.60 442.80 L 408.00 443.30 L 409.40 444.20 L 451.90 481.90 L 453.60 483.00 L 455.30 483.60 L 457.10 483.70 L 458.90 483.40 L 460.60 482.60 L 462.10 481.40 L 520.90 418.10 L 522.20 417.10 L 523.50 416.50 L 526.50 416.40 L 529.20 417.80 L 579.20 464.50 L 580.80 465.60 L 582.50 466.30 L 584.30 466.50 L 586.10 466.20 L 587.70 465.50 L 589.30 464.40 L 659.60 395.40 L 669.30 405.10 L 670.80 406.10 L 672.30 406.50 L 673.90 406.30 L 675.40 405.60 L 676.60 404.50 L 677.30 402.90 L 689.40 357.60 L 689.60 355.80 L 689.20 354.20 L 688.30 352.90 L 687.00 352.00 L 685.40 351.50 L 683.70 351.60 Z" fill="#274da0" fill-rule="nonzero" node-id="400" stroke="none" target-height="164.59998" target-width="361.49997" target-x="328.1" target-y="351.5"></path><path d="M 683.70 345.60 L 638.40 357.70 L 636.80 358.50 L 635.70 359.60 L 635.00 361.10 L 634.80 362.70 L 635.20 364.30 L 636.20 365.70 L 646.90 376.40 L 588.00 434.30 L 585.40 435.80 L 582.50 435.80 L 579.90 434.40 L 529.30 387.20 L 527.70 386.00 L 525.90 385.40 L 524.10 385.20 L 522.20 385.50 L 520.50 386.30 L 519.00 387.60 L 459.90 451.20 L 457.30 452.80 L 454.40 452.90 L 451.70 451.60 L 408.60 413.40 L 406.90 412.30 L 405.10 411.70 L 403.20 411.60 L 401.40 412.00 L 399.70 412.80 L 398.20 414.20 L 330.20 495.30 L 328.90 497.40 L 328.20 499.60 L 328.10 501.90 L 328.60 504.10 L 329.70 506.20 L 331.30 508.00 L 333.40 509.30 L 335.60 510.00 L 337.90 510.10 L 340.10 509.60 L 342.20 508.50 L 344.00 506.90 L 401.00 438.80 L 402.20 437.70 L 403.50 437.00 L 406.60 436.80 L 408.00 437.30 L 409.40 438.20 L 451.90 475.90 L 453.60 477.00 L 455.30 477.60 L 457.10 477.70 L 458.90 477.40 L 460.60 476.60 L 462.10 475.40 L 520.90 412.10 L 522.20 411.10 L 523.50 410.50 L 526.50 410.40 L 529.20 411.80 L 579.20 458.50 L 580.80 459.60 L 582.50 460.30 L 584.30 460.50 L 586.10 460.20 L 587.70 459.50 L 589.30 458.40 L 659.60 389.40 L 669.30 399.10 L 670.80 400.10 L 672.30 400.50 L 673.90 400.30 L 675.40 399.60 L 676.60 398.50 L 677.30 396.90 L 689.40 351.60 L 689.60 349.80 L 689.20 348.20 L 688.30 346.90 L 687.00 346.00 L 685.40 345.50 L 683.70 345.60 Z" fill="#ffffff" fill-rule="nonzero" node-id="402" stroke="none" target-height="164.6" target-width="361.49997" target-x="328.1" target-y="345.5"></path></svg>